# Blender v2.78 (sub 0) OBJ File: 'rocket.blend'
# www.blender.org
mtllib rocket.mtl
o Cylinder
v -0.197385 -0.000000 -0.107827
v 0.500000 0.000000 -0.200000
v -0.197385 -0.076245 -0.076245
v 0.500000 -0.141421 -0.141421
v -0.197385 -0.107827 0.000000
v 0.500000 -0.200000 0.000000
v -0.197385 -0.076245 0.076245
v 0.500000 -0.141421 0.141421
v -0.197385 -0.000000 0.107827
v 0.500000 0.000000 0.200000
v -0.197385 0.076245 0.076245
v 0.500000 0.141421 0.141421
v -0.197385 0.107827 -0.000000
v 0.500000 0.200000 -0.000000
v -0.197385 0.076245 -0.076245
v 0.500000 0.141421 -0.141421
v -0.251873 -0.000000 -0.039592
v -0.251873 -0.027996 -0.027996
v -0.251873 -0.039592 0.000000
v -0.251873 -0.027996 0.027996
v -0.251873 -0.000000 0.039592
v -0.251873 0.027996 0.027996
v -0.251873 0.039592 -0.000000
v -0.251873 0.027996 -0.027996
v -0.266163 -0.000000 -0.000000
v 0.600000 0.000000 -0.100000
v 0.600000 -0.070711 -0.070711
v 0.600000 -0.100000 0.000000
v 0.600000 -0.070711 0.070711
v 0.600000 0.000000 0.100000
v 0.600000 0.070711 0.070711
v 0.600000 0.100000 -0.000000
v 0.600000 0.070711 -0.070711
v 0.700000 0.000000 -0.100000
v 0.700000 -0.070711 -0.070711
v 0.700000 -0.100000 0.000000
v 0.700000 -0.070711 0.070711
v 0.700000 0.000000 0.100000
v 0.700000 0.070711 0.070711
v 0.700000 0.100000 -0.000000
v 0.700000 0.070711 -0.070711
v 0.550000 0.000000 0.150000
v 0.550000 0.106066 0.106066
v 0.550000 0.106066 -0.106066
v 0.550000 0.000000 -0.150000
v 0.550000 -0.106066 -0.106066
v 0.550000 -0.150000 0.000000
v 0.550000 -0.106066 0.106066
v 0.550000 0.150000 -0.000000
v 0.575000 0.000000 0.125000
v 0.575000 0.088388 -0.088388
v 0.575000 -0.125000 0.000000
v 0.575000 0.088388 0.088388
v 0.575000 0.000000 -0.125000
v 0.575000 -0.088388 -0.088388
v 0.575000 -0.088388 0.088388
v 0.575000 0.125000 -0.000000
v 0.999239 0.161459 -0.038506
v 0.985540 0.175158 -0.038506
v 0.985540 0.151084 -0.096627
v 0.999239 0.141397 -0.086940
v 0.999239 0.086940 0.141397
v 0.985540 0.096627 0.151083
v 0.985540 0.038506 0.175158
v 0.999239 0.038506 0.161459
v 0.999239 -0.141397 0.086940
v 0.985540 -0.151083 0.096627
v 0.985540 -0.175158 0.038506
v 0.999239 -0.161459 0.038506
v 0.999239 -0.038506 -0.161459
v 0.985540 -0.038506 -0.175158
v 0.999239 -0.086940 -0.141397
v 0.985540 -0.096627 -0.151084
v -0.128657 -0.000000 -0.133545
v -0.128657 -0.094431 -0.094431
v -0.128657 -0.133545 0.000000
v -0.128657 -0.094431 0.094431
v -0.128657 0.000000 0.133545
v -0.128657 0.094431 0.094431
v -0.128657 0.133545 -0.000000
v -0.128657 0.094431 -0.094431
v 0.366893 0.000000 -0.183426
v 0.366893 -0.129702 -0.129702
v 0.366893 -0.183426 0.000000
v 0.366893 -0.129702 0.129702
v 0.366893 0.000000 0.183426
v 0.366893 0.129702 0.129702
v 0.366893 0.183426 -0.000000
v 0.366893 0.129702 -0.129702
v -0.043732 -0.100475 -0.100475
v -0.043732 -0.142093 0.000000
v -0.043732 -0.100475 0.100475
v -0.043732 0.000000 0.142093
v -0.043732 0.100475 0.100475
v -0.043732 0.142093 -0.000000
v -0.043732 0.100475 -0.100475
v -0.043732 -0.000000 -0.142093
vt 0.2125 0.3852
vt 0.1511 0.5240
vt 0.0001 0.3664
vt 0.1400 0.3123
vt 0.0036 0.1506
vt 0.1399 0.2102
vt 0.1566 0.0001
vt 0.2114 0.1379
vt 0.3712 0.0001
vt 0.3133 0.1369
vt 0.5250 0.1515
vt 0.3865 0.2084
vt 0.5279 0.3698
vt 0.3880 0.3114
vt 0.4032 0.7862
vt 0.3588 0.8709
vt 0.3376 0.8495
vt 0.3705 0.7827
vt 0.3730 0.5287
vt 0.3156 0.3855
vt 0.2638 0.2576
vt 0.2647 0.2589
vt 0.2631 0.2587
vt 0.2629 0.2583
vt 0.2620 0.2584
vt 0.2624 0.2582
vt 0.2621 0.2579
vt 0.2631 0.2613
vt 0.2616 0.2610
vt 0.2621 0.2593
vt 0.2626 0.2594
vt 0.2610 0.2582
vt 0.2623 0.2573
vt 0.2644 0.2604
vt 0.2630 0.2591
vt 0.2607 0.2597
vt 0.2619 0.2588
vt 0.2757 0.6681
vt 0.3470 0.7112
vt 0.2951 0.7587
vt 0.2729 0.7476
vt 0.1646 0.6662
vt 0.2834 0.6268
vt 0.1914 0.6993
vt 0.1145 0.7976
vt 0.1562 0.7894
vt 0.2750 0.9168
vt 0.1768 0.8867
vt 0.1983 0.8592
vt 0.2727 0.8830
vt 0.3735 0.6915
vt 0.2362 0.7797
vt 0.2482 0.7573
vt 0.3012 0.7821
vt 0.2881 0.8035
vt 0.2646 0.8120
vt 0.2431 0.8017
vt 0.1027 0.9587
vt 0.0001 0.7899
vt 0.1029 0.7948
vt 0.1520 0.8976
vt 0.3222 0.5289
vt 0.4607 0.6560
vt 0.3987 0.6902
vt 0.2894 0.6127
vt 0.4072 0.9393
vt 0.2749 0.9999
vt 0.2728 0.9273
vt 0.3640 0.8927
vt 0.4797 0.8049
vt 0.4130 0.7902
vt 0.1033 0.5289
vt 0.1575 0.6231
vt 0.3190 0.6269
vt 0.3095 0.6217
vt 0.2404 0.9235
vt 0.2445 0.9262
vt 0.1064 0.7878
vt 0.1088 0.7658
vt 0.4055 0.8123
vt 0.4032 0.8191
vt 0.3219 0.6312
vt 0.3145 0.6270
vt 0.4090 0.8074
vt 0.4063 0.8160
vt 0.2540 0.9270
vt 0.2481 0.9244
vt 0.1018 0.7852
vt 0.1029 0.7724
vt 0.2605 0.2627
vt 0.2591 0.2602
vt 0.2634 0.2635
vt 0.2659 0.2619
vt 0.2666 0.2590
vt 0.2651 0.2565
vt 0.2623 0.2559
vt 0.2599 0.2574
vt 0.2582 0.2660
vt 0.2557 0.2609
vt 0.2638 0.2677
vt 0.2689 0.2647
vt 0.2704 0.2590
vt 0.2676 0.2541
vt 0.2622 0.2526
vt 0.2573 0.2554
vn -0.1143 -0.3802 -0.9178
vn -0.1143 -0.9178 -0.3802
vn -0.1143 -0.9178 0.3802
vn -0.1143 -0.3802 0.9178
vn -0.1143 0.3802 0.9178
vn -0.1143 0.9178 0.3802
vn 0.6786 0.2811 0.6786
vn -0.1143 0.9178 -0.3802
vn -0.1143 0.3802 -0.9178
vn -0.7566 -0.2502 0.6041
vn -0.9314 -0.3362 -0.1393
vn -0.7566 0.6041 -0.2502
vn -0.7566 -0.6041 -0.2502
vn -0.7566 0.2502 0.6041
vn -0.7566 0.2502 -0.6041
vn -0.7566 -0.2502 -0.6041
vn -0.7566 -0.6041 0.2502
vn -0.7566 0.6041 0.2502
vn -0.9314 0.3362 -0.1393
vn -0.9314 0.1393 0.3362
vn -0.9314 -0.3362 0.1393
vn -0.9314 -0.1393 -0.3362
vn -0.9314 0.1393 -0.3362
vn -0.9314 0.3362 0.1393
vn -0.9314 -0.1393 0.3362
vn -0.0000 0.9239 -0.3827
vn 0.6786 0.2811 -0.6786
vn 0.6786 -0.2811 -0.6786
vn 0.6786 -0.6786 0.2811
vn 0.6786 0.6786 0.2811
vn 0.6786 -0.2811 0.6786
vn 0.6786 0.6786 -0.2811
vn 0.6786 -0.6786 -0.2811
vn 1.0000 0.0000 0.0000
vn -0.0000 0.3827 0.9239
vn 0.0000 -0.9239 0.3827
vn 0.0000 -0.3827 -0.9239
vn 0.0000 0.3827 -0.9239
vn -0.0000 0.9239 0.3827
vn 0.0000 -0.3827 0.9239
vn 0.0000 -0.9239 -0.3827
vn -0.0869 0.9204 -0.3812
vn 0.0830 -0.0830 -0.9931
vn 0.1134 0.3802 0.9179
vn 0.1134 -0.3802 -0.9179
vn 0.0830 0.0830 0.9931
vn 0.1134 -0.9179 0.3802
vn 0.0830 -0.6435 -0.7609
vn 0.0830 -0.9931 0.0830
vn 0.0830 0.7609 -0.6435
vn -0.0869 0.3812 0.9204
vn -0.0869 -0.9204 0.3812
vn 0.0830 0.6435 0.7609
vn 0.1134 0.9179 -0.3802
vn 0.0830 0.9931 -0.0830
vn 0.0830 -0.7609 0.6435
vn -0.0869 -0.3812 -0.9204
vn -0.3267 0.3617 -0.8732
vn -0.3267 0.8732 -0.3617
vn -0.3267 0.8732 0.3617
vn -0.3267 0.3617 0.8732
vn -0.3267 -0.3617 0.8732
vn -0.3267 -0.8732 0.3617
vn -0.3267 -0.8732 -0.3617
vn -0.3267 -0.3617 -0.8732
vn -0.0926 0.3810 -0.9199
vn -0.0926 0.9199 -0.3810
vn -0.0926 0.9199 0.3810
vn -0.0926 0.3810 0.9199
vn -0.0926 -0.3810 0.9199
vn -0.0926 -0.9199 0.3810
vn -0.0926 -0.9199 -0.3810
vn -0.0926 -0.3810 -0.9199
usemtl None
s off
f 82/1/1 2/2/1 4/3/1 83/4/1
f 83/4/2 4/3/2 6/5/2 84/6/2
f 84/6/3 6/5/3 8/7/3 85/8/3
f 85/8/4 8/7/4 10/9/4 86/10/4
f 86/10/5 10/9/5 12/11/5 87/12/5
f 87/12/6 12/11/6 14/13/6 88/14/6
f 53/15/7 50/16/7 30/17/7 31/18/7
f 88/14/8 14/13/8 16/19/8 89/20/8
f 89/20/9 16/19/9 2/2/9 82/1/9
f 7/21/10 9/22/10 21/23/10 20/24/10
f 18/25/11 19/26/11 25/27/11
f 13/28/12 15/29/12 24/30/12 23/31/12
f 3/32/13 5/33/13 19/26/13 18/25/13
f 9/22/14 11/34/14 22/35/14 21/23/14
f 15/29/15 1/36/15 17/37/15 24/30/15
f 1/36/16 3/32/16 18/25/16 17/37/16
f 5/33/17 7/21/17 20/24/17 19/26/17
f 11/34/18 13/28/18 23/31/18 22/35/18
f 23/31/19 24/30/19 25/27/19
f 21/23/20 22/35/20 25/27/20
f 19/26/21 20/24/21 25/27/21
f 17/37/22 18/25/22 25/27/22
f 24/30/23 17/37/23 25/27/23
f 22/35/24 23/31/24 25/27/24
f 20/24/25 21/23/25 25/27/25
f 33/38/26 32/39/26 40/40/26 41/41/26
f 54/42/27 51/43/27 33/38/27 26/44/27
f 55/45/28 54/42/28 26/44/28 27/46/28
f 56/47/29 52/48/29 28/49/29 29/50/29
f 57/51/30 53/15/30 31/18/30 32/39/30
f 50/16/31 56/47/31 29/50/31 30/17/31
f 51/43/32 57/51/32 32/39/32 33/38/32
f 52/48/33 55/45/33 27/46/33 28/49/33
f 35/52/34 34/53/34 41/41/34 40/40/34 39/54/34 38/55/34 37/56/34 36/57/34
f 31/18/35 30/17/35 38/55/35 39/54/35
f 29/50/36 28/49/36 36/57/36 37/56/36
f 27/46/37 26/44/37 34/53/37 35/52/37
f 26/44/38 33/38/38 41/41/38 34/53/38
f 32/39/39 31/18/39 39/54/39 40/40/39
f 30/17/40 29/50/40 37/56/40 38/55/40
f 28/49/41 27/46/41 35/52/41 36/57/41
f 6/58/33 4/59/33 46/60/33 47/61/33
f 16/62/32 14/63/32 49/64/32 44/65/32
f 10/66/31 8/67/31 48/68/31 42/69/31
f 14/63/30 12/70/30 43/71/30 49/64/30
f 8/67/29 6/58/29 47/61/29 48/68/29
f 4/59/28 2/72/28 45/73/28 46/60/28
f 2/72/27 16/62/27 44/65/27 45/73/27
f 12/70/7 10/66/7 42/69/7 43/71/7
f 47/61/33 46/60/33 55/45/33 52/48/33
f 44/65/42 49/64/42 59/74/42 60/75/42
f 42/69/31 48/68/31 56/47/31 50/16/31
f 49/64/30 43/71/30 53/15/30 57/51/30
f 47/61/43 52/48/43 69/76/43 68/77/43
f 54/42/44 55/45/44 72/78/44 70/79/44
f 45/73/27 44/65/27 51/43/27 54/42/27
f 50/16/45 53/15/45 62/80/45 65/81/45
f 60/75/32 59/74/32 58/82/32 61/83/32
f 49/64/46 57/51/46 58/82/46 59/74/46
f 57/51/47 51/43/47 61/83/47 58/82/47
f 51/43/48 44/65/48 60/75/48 61/83/48
f 63/84/7 64/85/7 65/81/7 62/80/7
f 42/69/49 50/16/49 65/81/49 64/85/49
f 53/15/50 43/71/50 63/84/50 62/80/50
f 43/71/51 42/69/51 64/85/51 63/84/51
f 67/86/29 68/77/29 69/76/29 66/87/29
f 48/68/52 47/61/52 68/77/52 67/86/52
f 56/47/53 48/68/53 67/86/53 66/87/53
f 52/48/54 56/47/54 66/87/54 69/76/54
f 73/88/28 71/89/28 70/79/28 72/78/28
f 45/73/55 54/42/55 70/79/55 71/89/55
f 55/45/56 46/60/56 73/88/56 72/78/56
f 46/60/57 45/73/57 71/89/57 73/88/57
f 15/29/58 81/90/58 74/91/58 1/36/58
f 13/28/59 80/92/59 81/90/59 15/29/59
f 11/34/60 79/93/60 80/92/60 13/28/60
f 9/22/61 78/94/61 79/93/61 11/34/61
f 7/21/62 77/95/62 78/94/62 9/22/62
f 5/33/63 76/96/63 77/95/63 7/21/63
f 3/32/64 75/97/64 76/96/64 5/33/64
f 1/36/65 74/91/65 75/97/65 3/32/65
f 96/98/66 89/20/66 82/1/66 97/99/66
f 95/100/67 88/14/67 89/20/67 96/98/67
f 94/101/68 87/12/68 88/14/68 95/100/68
f 93/102/69 86/10/69 87/12/69 94/101/69
f 92/103/70 85/8/70 86/10/70 93/102/70
f 91/104/71 84/6/71 85/8/71 92/103/71
f 90/105/72 83/4/72 84/6/72 91/104/72
f 97/99/73 82/1/73 83/4/73 90/105/73
f 74/91/73 97/99/73 90/105/73 75/97/73
f 75/97/72 90/105/72 91/104/72 76/96/72
f 76/96/71 91/104/71 92/103/71 77/95/71
f 77/95/70 92/103/70 93/102/70 78/94/70
f 78/94/69 93/102/69 94/101/69 79/93/69
f 79/93/68 94/101/68 95/100/68 80/92/68
f 80/92/67 95/100/67 96/98/67 81/90/67
f 81/90/66 96/98/66 97/99/66 74/91/66
